<?xml version="1.0" standalone="no"?><!DOCTYPE svg PUBLIC "-//W3C//DTD SVG 1.1//EN" "http://www.w3.org/Graphics/SVG/1.1/DTD/svg11.dtd"><svg t="1650879947257" class="icon" viewBox="0 0 1024 1024" version="1.1" xmlns="http://www.w3.org/2000/svg" p-id="5644" xmlns:xlink="http://www.w3.org/1999/xlink" width="200" height="200"><defs><style type="text/css"></style></defs><path d="M623.1 132.8c-72.97 3.38-131.52 61.93-134.9 134.9 72.96-3.39 131.51-61.94 134.9-134.9zM247.32 64.44c115.23 5.1 207.69 93.32 213.04 203.25-115.24-5.09-207.7-93.31-213.04-203.25z" fill="#8BCA83" p-id="5645"></path><path d="M471.92 305.18c-26.62-14.74-98.05-12.77-129.52-11.08-17.32 0.93-34.36 4.9-50.18 12.01-0.13 0.06-0.26 0.12-0.39 0.17-26.99 12.23-51.53 30.59-72.84 54.21-15.72 17.43-29.69 37.73-41.56 60.57-25.37 49.01-38.58 105.5-37.14 159.01 0.95 35.71 10.05 125.79 74.67 192.23 18.09 18.66 34.46 29.1 51.79 40.2 19.15 12.26 38.87 24.89 67.59 52.46 21.92 20.97 30.73 33.13 37.81 42.89 5.64 7.81 11.1 15.26 19.89 22.69-201.74-216.7 79.88-625.36 79.88-625.36z" fill="#F3A4BF" p-id="5646"></path><path d="M482.05 959.56c3.45 0 6.99-0.1 10.53-0.29 29.58-1.53 61.84-9.19 95.83-22.78 64.14-25.66 128.37-70.07 176.24-121.77 15.89-17.13 53.04-57.25 81.76-113.25 37.24-72.37 46.72-144.08 28.24-213.2-11.97-44.71-36.28-88.74-68.45-124.17-1.11-1.22-2.24-2.41-3.36-3.61-25.93-27.61-55.64-48.77-87.2-62.25-132.83-59.59-243.72 6.94-243.72 6.94S190.3 713.84 392.04 930.54c3.28 2.78 7.02 5.55 11.42 8.33 21.82 13.79 48.24 20.69 78.59 20.69z" fill="#EE85AB" p-id="5647"></path><path d="M632.73 373.11m-20.48 0a20.48 20.48 0 1 0 40.96 0 20.48 20.48 0 1 0-40.96 0Z" fill="#FFFFFF" p-id="5648"></path><path d="M716.32 609.59c-0.34-0.32-0.68-0.64-1.02-0.97-7.11-6.73-8.13-17.57-2.65-25.68 30.95-45.79 19.16-108.76-26.26-140.25-8.04-5.58-11.02-16.05-6.82-24.9 0.2-0.42 0.4-0.85 0.6-1.27 5.22-11 19.05-14.72 29.09-7.83 64.37 44.16 81.04 133.2 37.01 197.66-6.86 10.07-21.1 11.61-29.95 3.24z" fill="#FFFFFF" p-id="5649"></path></svg>