<?xml version="1.0" standalone="no"?><!DOCTYPE svg PUBLIC "-//W3C//DTD SVG 1.1//EN" "http://www.w3.org/Graphics/SVG/1.1/DTD/svg11.dtd"><svg t="1650879874988" class="icon" viewBox="0 0 1024 1024" version="1.1" xmlns="http://www.w3.org/2000/svg" p-id="4251" xmlns:xlink="http://www.w3.org/1999/xlink" width="200" height="200"><defs><style type="text/css"></style></defs><path d="M399.4 736.9v-89.4c0-2.4-1.4-4.5-3.5-5.5-48.8-22.1-90.1-57.4-119.6-102.3-30.3-46-46.3-99.5-46.3-154.8 0-75.3 29.3-146.1 82.6-199.4 53.3-53.3 124.1-82.6 199.4-82.6 75.3 0 146.1 29.3 199.4 82.6 53.3 53.3 82.6 124.1 82.6 199.4 0 55.3-16 108.8-46.3 154.8-29.5 44.8-70.9 80.2-119.6 102.3-2.1 1-3.5 3.1-3.5 5.5v89.4H399.4z" fill="#FFEDC0" p-id="4252"></path><path d="M512 109.1c37.3 0 73.4 7.3 107.4 21.7 32.9 13.9 62.4 33.8 87.7 59.2 25.4 25.4 45.3 54.9 59.2 87.7 14.4 34 21.7 70.2 21.7 107.4 0 54.1-15.7 106.5-45.3 151.5-28.9 43.9-69.4 78.5-117.1 100.1-4.3 1.9-7.1 6.2-7.1 10.9V731H405.4v-83.4c0-4.7-2.8-9-7.1-10.9-47.7-21.6-88.2-56.2-117.1-100.1-29.6-45-45.3-97.4-45.3-151.5 0-37.3 7.3-73.4 21.7-107.4 13.9-32.9 33.8-62.4 59.2-87.7s54.9-45.3 87.7-59.2c34.1-14.4 70.2-21.7 107.5-21.7m0-12c-159.1 0-288 128.9-288 288 0 116.8 69.5 217.3 169.4 262.5V743h237.2v-95.4C730.5 602.4 800 501.8 800 385.1c0-159.1-128.9-288-288-288z" fill="#4C3800" p-id="4253"></path><path d="M416 920.9c-32 0-58-26-58-58v-172c0-7.7 6.3-14 14-14h280c7.7 0 14 6.3 14 14v172c0 32-26 58-58 58H416z" fill="#FFD766" p-id="4254"></path><path d="M652 682.9c4.4 0 8 3.6 8 8v172c0 28.7-23.3 52-52 52H416c-28.7 0-52-23.3-52-52v-172c0-4.4 3.6-8 8-8h280m0-12H372c-11 0-20 9-20 20v172c0 35.3 28.7 64 64 64h192c35.3 0 64-28.7 64-64v-172c0-11-9-20-20-20z" fill="#4C3800" p-id="4255"></path><path d="M419 420.9c-3.2 0-4.7-2.2-5.3-3.1-0.5-0.9-1.5-3.4 0.2-6.1l23-36.1c1.1-1.8 3-2.8 5.1-2.8s3.9 1 5.1 2.8l23 36.1c1.7 2.7 0.7 5.2 0.2 6.1-0.5 0.9-2.1 3.1-5.3 3.1h-46z" fill="#FFEDC0" p-id="4256"></path><path d="M442 378.8l23 36.1h-46l23-36.1m0-12c-3.9 0-7.8 1.9-10.1 5.6l-23 36.1c-5.1 8 0.7 18.4 10.1 18.4h46c9.5 0 15.2-10.4 10.1-18.4l-23-36.1c-2.3-3.8-6.2-5.6-10.1-5.6z" fill="#4C3800" p-id="4257"></path><path d="M559 420.9c-3.2 0-4.7-2.2-5.3-3.1-0.5-0.9-1.5-3.4 0.2-6.1l23-36.1c1.1-1.8 3-2.8 5.1-2.8s3.9 1 5.1 2.8l23 36.1c1.7 2.7 0.7 5.2 0.2 6.1-0.5 0.9-2.1 3.1-5.3 3.1h-46z" fill="#FFEDC0" p-id="4258"></path><path d="M582 378.8l23 36.1h-46l23-36.1m0-12c-3.9 0-7.8 1.9-10.1 5.6l-23 36.1c-5.1 8 0.7 18.4 10.1 18.4h46c9.5 0 15.2-10.4 10.1-18.4l-23-36.1c-2.3-3.8-6.2-5.6-10.1-5.6zM477 414.9h-12v256h12v-256z" fill="#4C3800" p-id="4259"></path><path d="M559 414.9h-12v256h12v-256z" fill="#4C3800" p-id="4260"></path><path d="M559 414.9h-94v12h94v-12z" fill="#4C3800" p-id="4261"></path><path d="M672 731.9H352v12h320v-12z" fill="#4C3800" p-id="4262"></path><path d="M672 833.9H352v12h320v-12z" fill="#4C3800" p-id="4263"></path><path d="M672 754.8H352v12h320v-12z" fill="#4C3800" p-id="4264"></path></svg>